<svg xmlns="http://www.w3.org/2000/svg" xmlns:xlink="http://www.w3.org/1999/xlink" width="500" zoomAndPan="magnify" viewBox="0 0 375 374.999991" height="500" preserveAspectRatio="xMidYMid meet" version="1.0"><defs><g/><clipPath id="8998065025"><path d="M 101.089844 130.488281 L 226 130.488281 L 226 291.738281 L 101.089844 291.738281 Z M 101.089844 130.488281 " clip-rule="nonzero"/></clipPath><clipPath id="2b9db58331"><path d="M 199 182 L 267.589844 182 L 267.589844 291.738281 L 199 291.738281 Z M 199 182 " clip-rule="nonzero"/></clipPath></defs><rect x="-37.5" width="450" fill="#ffffff" y="-37.499999" height="449.999989" fill-opacity="1"/><rect x="-37.5" width="450" fill="#ffffff" y="-37.499999" height="449.999989" fill-opacity="1"/><path fill="#5ce1e6" d="M 18.363281 212.234375 C 18.242188 209.390625 18.191406 206.542969 18.214844 203.691406 C 18.238281 200.84375 18.332031 197.996094 18.5 195.152344 C 18.664062 192.308594 18.902344 189.46875 19.210938 186.636719 C 19.523438 183.804688 19.902344 180.984375 20.355469 178.167969 C 20.804688 175.355469 21.328125 172.558594 21.921875 169.769531 C 22.511719 166.984375 23.175781 164.214844 23.90625 161.460938 C 24.640625 158.707031 25.441406 155.972656 26.3125 153.261719 C 27.179688 150.546875 28.117188 147.859375 29.125 145.191406 C 30.128906 142.527344 31.203125 139.886719 32.339844 137.277344 C 33.476562 134.664062 34.679688 132.085938 35.949219 129.535156 C 37.21875 126.984375 38.550781 124.464844 39.945312 121.980469 C 41.339844 119.5 42.796875 117.050781 44.316406 114.640625 C 45.835938 112.230469 47.414062 109.859375 49.050781 107.53125 C 50.691406 105.199219 52.386719 102.914062 54.136719 100.667969 C 55.890625 98.421875 57.699219 96.222656 59.566406 94.070312 C 61.429688 91.917969 63.347656 89.8125 65.316406 87.753906 C 67.285156 85.699219 69.308594 83.691406 71.378906 81.738281 C 73.449219 79.78125 75.570312 77.878906 77.734375 76.03125 C 79.902344 74.183594 82.117188 72.390625 84.371094 70.65625 C 86.628906 68.917969 88.929688 67.242188 91.273438 65.621094 C 93.613281 64 95.996094 62.441406 98.414062 60.941406 C 100.835938 59.441406 103.292969 58 105.785156 56.625 C 108.28125 55.25 110.804688 53.9375 113.363281 52.6875 C 115.925781 51.4375 118.511719 50.253906 121.132812 49.136719 C 123.75 48.019531 126.394531 46.96875 129.066406 45.984375 C 131.738281 45 134.433594 44.082031 137.152344 43.234375 C 139.871094 42.382812 142.609375 41.605469 145.367188 40.894531 C 148.121094 40.183594 150.894531 39.542969 153.6875 38.972656 C 156.476562 38.402344 159.277344 37.902344 162.09375 37.472656 C 164.90625 37.042969 167.730469 36.683594 170.5625 36.398438 C 173.398438 36.113281 176.234375 35.894531 179.078125 35.753906 C 181.921875 35.609375 184.769531 35.539062 187.613281 35.539062 C 190.460938 35.539062 193.308594 35.609375 196.152344 35.753906 C 198.996094 35.894531 201.832031 36.113281 204.664062 36.398438 C 207.5 36.683594 210.324219 37.042969 213.136719 37.472656 C 215.953125 37.902344 218.753906 38.402344 221.542969 38.972656 C 224.332031 39.542969 227.105469 40.183594 229.863281 40.894531 C 232.621094 41.605469 235.359375 42.382812 238.078125 43.234375 C 240.792969 44.082031 243.488281 44.996094 246.160156 45.984375 C 248.832031 46.96875 251.480469 48.019531 254.097656 49.136719 C 256.714844 50.253906 259.304688 51.4375 261.863281 52.6875 C 264.425781 53.9375 266.949219 55.25 269.441406 56.625 C 271.9375 58 274.394531 59.4375 276.8125 60.9375 C 279.234375 62.441406 281.617188 64 283.957031 65.621094 C 286.300781 67.242188 288.597656 68.917969 290.855469 70.65625 C 293.113281 72.390625 295.324219 74.183594 297.492188 76.03125 C 299.660156 77.878906 301.78125 79.78125 303.851562 81.734375 C 305.921875 83.691406 307.941406 85.695312 309.914062 87.753906 C 311.882812 89.8125 313.800781 91.914062 315.664062 94.070312 C 317.527344 96.222656 319.335938 98.421875 321.089844 100.667969 C 322.84375 102.910156 324.539062 105.199219 326.179688 107.53125 C 327.816406 109.859375 329.394531 112.230469 330.914062 114.640625 C 332.429688 117.050781 333.886719 119.496094 335.285156 121.980469 C 336.679688 124.464844 338.011719 126.980469 339.28125 129.53125 C 340.546875 132.082031 341.75 134.664062 342.890625 137.277344 C 344.027344 139.886719 345.101562 142.527344 346.105469 145.191406 C 347.109375 147.855469 348.046875 150.546875 348.917969 153.257812 C 349.789062 155.972656 350.589844 158.707031 351.320312 161.457031 C 352.054688 164.210938 352.714844 166.980469 353.308594 169.769531 C 353.902344 172.554688 354.425781 175.355469 354.875 178.167969 C 355.328125 180.980469 355.707031 183.804688 356.015625 186.636719 C 356.328125 189.46875 356.5625 192.308594 356.730469 195.152344 C 356.898438 197.996094 356.992188 200.84375 357.015625 203.691406 C 357.039062 206.539062 356.988281 209.386719 356.867188 212.234375 L 268.96875 208.503906 C 269.027344 207.136719 269.050781 205.769531 269.039062 204.398438 C 269.027344 203.03125 268.984375 201.660156 268.902344 200.292969 C 268.824219 198.925781 268.710938 197.5625 268.558594 196.203125 C 268.410156 194.839844 268.230469 193.484375 268.011719 192.132812 C 267.792969 190.777344 267.542969 189.433594 267.257812 188.09375 C 266.972656 186.753906 266.65625 185.421875 266.304688 184.097656 C 265.953125 182.777344 265.566406 181.460938 265.148438 180.15625 C 264.730469 178.855469 264.28125 177.5625 263.796875 176.28125 C 263.3125 175 262.796875 173.730469 262.25 172.476562 C 261.703125 171.21875 261.125 169.980469 260.515625 168.753906 C 259.90625 167.527344 259.265625 166.316406 258.59375 165.125 C 257.925781 163.929688 257.222656 162.753906 256.492188 161.59375 C 255.765625 160.4375 255.003906 159.296875 254.21875 158.175781 C 253.429688 157.058594 252.617188 155.957031 251.773438 154.878906 C 250.929688 153.800781 250.058594 152.742188 249.164062 151.707031 C 248.269531 150.671875 247.347656 149.660156 246.398438 148.671875 C 245.453125 147.683594 244.480469 146.71875 243.484375 145.777344 C 242.492188 144.839844 241.472656 143.925781 240.429688 143.039062 C 239.386719 142.148438 238.324219 141.289062 237.238281 140.453125 C 236.15625 139.617188 235.050781 138.8125 233.921875 138.03125 C 232.796875 137.253906 231.652344 136.503906 230.488281 135.78125 C 229.328125 135.0625 228.144531 134.371094 226.945312 133.707031 C 225.75 133.046875 224.535156 132.417969 223.304688 131.816406 C 222.074219 131.214844 220.828125 130.648438 219.570312 130.109375 C 218.3125 129.574219 217.039062 129.066406 215.757812 128.59375 C 214.472656 128.121094 213.175781 127.679688 211.871094 127.273438 C 210.5625 126.863281 209.25 126.488281 207.921875 126.148438 C 206.597656 125.804688 205.265625 125.5 203.921875 125.222656 C 202.582031 124.949219 201.234375 124.710938 199.882812 124.503906 C 198.53125 124.296875 197.171875 124.125 195.8125 123.988281 C 194.449219 123.847656 193.085938 123.746094 191.71875 123.675781 C 190.351562 123.605469 188.984375 123.574219 187.613281 123.574219 C 186.246094 123.574219 184.878906 123.605469 183.511719 123.675781 C 182.144531 123.746094 180.78125 123.847656 179.417969 123.988281 C 178.058594 124.125 176.699219 124.296875 175.347656 124.503906 C 173.992188 124.710938 172.648438 124.949219 171.304688 125.222656 C 169.964844 125.5 168.632812 125.804688 167.308594 126.148438 C 165.980469 126.488281 164.664062 126.863281 163.359375 127.273438 C 162.050781 127.679688 160.757812 128.121094 159.472656 128.59375 C 158.1875 129.066406 156.917969 129.574219 155.660156 130.109375 C 154.398438 130.648438 153.15625 131.214844 151.925781 131.816406 C 150.695312 132.417969 149.480469 133.046875 148.28125 133.710938 C 147.085938 134.371094 145.902344 135.0625 144.738281 135.78125 C 143.574219 136.503906 142.429688 137.253906 141.304688 138.03125 C 140.179688 138.8125 139.074219 139.617188 137.988281 140.453125 C 136.90625 141.289062 135.839844 142.148438 134.800781 143.039062 C 133.757812 143.925781 132.738281 144.839844 131.742188 145.78125 C 130.746094 146.71875 129.777344 147.683594 128.828125 148.671875 C 127.882812 149.660156 126.960938 150.671875 126.066406 151.707031 C 125.167969 152.742188 124.300781 153.800781 123.457031 154.878906 C 122.613281 155.957031 121.800781 157.058594 121.011719 158.179688 C 120.222656 159.296875 119.464844 160.4375 118.734375 161.597656 C 118.007812 162.753906 117.304688 163.929688 116.636719 165.125 C 115.964844 166.316406 115.324219 167.527344 114.714844 168.753906 C 114.105469 169.980469 113.527344 171.21875 112.980469 172.476562 C 112.433594 173.730469 111.917969 175 111.433594 176.28125 C 110.949219 177.5625 110.5 178.855469 110.082031 180.160156 C 109.664062 181.460938 109.277344 182.777344 108.925781 184.101562 C 108.574219 185.421875 108.253906 186.753906 107.96875 188.09375 C 107.6875 189.433594 107.433594 190.78125 107.21875 192.132812 C 107 193.484375 106.816406 194.839844 106.667969 196.203125 C 106.519531 197.5625 106.40625 198.925781 106.328125 200.292969 C 106.246094 201.660156 106.199219 203.03125 106.191406 204.398438 C 106.179688 205.769531 106.203125 207.136719 106.261719 208.507812 Z M 18.363281 212.234375 " fill-opacity="0.302" fill-rule="nonzero"/><g fill="#000000" fill-opacity="1"><g transform="translate(82.359477, 208.440677)"><g><path d="M 0.300781 -2.925781 L 1.195312 -11.558594 L -35.496094 -15.351562 L -36.390625 -6.71875 Z M -13.097656 -17.609375 C -13.097656 -17.609375 -10.898438 -29.34375 -22.804688 -30.578125 C -33.804688 -31.714844 -35.164062 -18.554688 -35.164062 -18.554688 C -35.164062 -18.554688 -34.207031 -24.4375 -23.621094 -23.34375 C -13.179688 -22.261719 -13.097656 -17.609375 -13.097656 -17.609375 Z M -13.097656 -17.609375 "/></g></g></g><g fill="#000000" fill-opacity="1"><g transform="translate(84.507016, 184.180576)"><g><path d="M 4.800781 -14.335938 L 7.535156 -22.5 L -7.136719 -27.414062 C -11.980469 -29.035156 -18.136719 -26.078125 -19.011719 -17.289062 C -19.011719 -17.289062 -16.769531 -21.558594 -12.523438 -20.136719 Z M -11.097656 -10.949219 C -10.363281 -13.140625 -11.535156 -15.597656 -13.789062 -16.355469 C -15.980469 -17.085938 -18.394531 -15.828125 -19.128906 -13.636719 C -19.882812 -11.382812 -18.691406 -8.988281 -16.5 -8.257812 C -14.246094 -7.5 -11.851562 -8.691406 -11.097656 -10.949219 Z M 3.507812 -8.496094 C 3.6875 -9.910156 3.734375 -11.816406 3.160156 -13.1875 C 2.890625 -11.0625 0.988281 -9.5625 -1.117188 -9.675781 C -4.371094 -9.878906 -7.152344 -13.023438 -7.992188 -15.152344 C -8.390625 -13.957031 -8.683594 -12.871094 -8.726562 -11.632812 C -8.730469 -9.199219 -8.113281 -6.628906 -6.414062 -4.878906 C -4.753906 -2.996094 -1.835938 -2.238281 0.535156 -3.363281 C 2.460938 -4.269531 3.261719 -6.4375 3.507812 -8.496094 Z M 3.507812 -8.496094 "/></g></g></g><g fill="#000000" fill-opacity="1"><g transform="translate(91.978742, 162.510598)"><g><path d="M 6.542969 -14.039062 C 6.542969 -14.039062 4.921875 -10.066406 0.960938 -12.160156 L -23.675781 -25.167969 C -19.707031 -21.886719 -18.035156 -16.808594 -19.402344 -13.175781 L -5.535156 -5.851562 C 0.464844 -2.683594 6.535156 -5.175781 6.542969 -14.039062 Z M 6.542969 -14.039062 "/></g></g></g><g fill="#000000" fill-opacity="1"><g transform="translate(97.493986, 151.765919)"><g><path d="M -19.363281 -22.128906 C -18.054688 -24.03125 -18.542969 -26.660156 -20.445312 -27.96875 C -22.410156 -29.316406 -25.035156 -28.828125 -26.34375 -26.921875 C -27.691406 -24.960938 -27.203125 -22.332031 -25.242188 -20.988281 C -23.335938 -19.679688 -20.710938 -20.167969 -19.363281 -22.128906 Z M 1.664062 -2.421875 L 6.578125 -9.578125 L -12.636719 -22.773438 L -17.550781 -15.617188 Z M 1.664062 -2.421875 "/></g></g></g><g fill="#000000" fill-opacity="1"><g transform="translate(104.25636, 141.67336)"><g><path d="M 9.59375 -12.160156 C 9.59375 -12.160156 7.101562 -8.667969 3.726562 -11.613281 L -17.261719 -29.933594 C -14.152344 -25.828125 -13.695312 -20.503906 -15.855469 -17.28125 L -4.042969 -6.96875 C 1.070312 -2.503906 7.546875 -3.539062 9.59375 -12.160156 Z M 9.59375 -12.160156 "/></g></g></g><g fill="#000000" fill-opacity="1"><g transform="translate(111.034348, 132.763597)"><g><path d="M 11.65625 -9.628906 L 18.296875 -15.109375 L 8.445312 -27.039062 C 5.191406 -30.976562 -1.597656 -31.722656 -6.988281 -24.730469 C -6.988281 -24.730469 -2.828125 -27.167969 0.0234375 -23.714844 Z M -3.625 -15.164062 C -1.84375 -16.632812 -1.535156 -19.339844 -3.050781 -21.171875 C -4.523438 -22.953125 -7.238281 -23.164062 -9.019531 -21.691406 C -10.855469 -20.175781 -11.105469 -17.515625 -9.636719 -15.734375 C -8.121094 -13.902344 -5.460938 -13.648438 -3.625 -15.164062 Z M 7.472656 -5.351562 C 8.371094 -6.460938 9.417969 -8.050781 9.660156 -9.519531 C 8.308594 -7.859375 5.894531 -7.589844 4.171875 -8.800781 C 1.515625 -10.695312 0.820312 -14.835938 1.230469 -17.085938 C 0.261719 -16.28125 -0.558594 -15.515625 -1.253906 -14.488281 C -2.542969 -12.425781 -3.378906 -9.917969 -2.863281 -7.53125 C -2.453125 -5.054688 -0.371094 -2.871094 2.234375 -2.570312 C 4.347656 -2.320312 6.171875 -3.738281 7.472656 -5.351562 Z M 7.472656 -5.351562 "/></g></g></g><g fill="#000000" fill-opacity="1"><g transform="translate(128.111567, 118.397729)"><g><path d="M 10.621094 -4.789062 C 15.054688 -7.183594 17.039062 -12.636719 15.140625 -16.144531 C 11.148438 -23.535156 0.683594 -15.808594 -2.511719 -21.71875 C -3.179688 -22.949219 -3.0625 -24.207031 -2.300781 -25.890625 C -6.734375 -23.492188 -7.980469 -18.441406 -6.417969 -15.546875 C -2.722656 -8.714844 7.445312 -15.960938 10.441406 -10.417969 C 11.371094 -8.695312 11.5 -6.695312 10.621094 -4.789062 Z M 5.253906 -21.777344 C 6.976562 -22.710938 7.566406 -24.859375 6.632812 -26.582031 C 5.703125 -28.308594 3.519531 -28.957031 1.855469 -28.058594 C 0.132812 -27.125 -0.515625 -24.945312 0.414062 -23.222656 C 1.347656 -21.496094 3.527344 -20.847656 5.253906 -21.777344 Z M 5.25 -2.359375 C 7.34375 -3.492188 8.105469 -6.054688 6.972656 -8.148438 C 5.84375 -10.242188 3.28125 -11.003906 1.1875 -9.871094 C -0.84375 -8.773438 -1.671875 -6.179688 -0.539062 -4.085938 C 0.59375 -1.992188 3.214844 -1.261719 5.25 -2.359375 Z M 5.25 -2.359375 "/></g></g></g><g fill="#000000" fill-opacity="1"><g transform="translate(145.148714, 109.231379)"><g/></g></g><g fill="#000000" fill-opacity="1"><g transform="translate(156.96162, 104.815483)"><g/></g></g><g fill="#000000" fill-opacity="1"><g transform="translate(168.248081, 101.46895)"><g><path d="M 15.09375 -0.902344 L 23.6875 -1.417969 L 22.761719 -16.859375 C 22.457031 -21.960938 17.414062 -26.566406 8.9375 -24.09375 C 8.9375 -24.09375 13.734375 -23.609375 14 -19.140625 Z M 6.011719 -14.382812 C 8.316406 -14.523438 10.160156 -16.527344 10.019531 -18.902344 C 9.878906 -21.207031 7.8125 -22.976562 5.503906 -22.839844 C 3.128906 -22.695312 1.355469 -20.695312 1.492188 -18.390625 C 1.636719 -16.015625 3.636719 -14.242188 6.011719 -14.382812 Z M 9.191406 0.0820312 C 10.570312 -0.28125 12.355469 -0.949219 13.414062 -1.996094 C 11.34375 -1.449219 9.238281 -2.65625 8.558594 -4.648438 C 7.53125 -7.742188 9.410156 -11.5 11.066406 -13.074219 C 9.8125 -13 8.695312 -12.863281 7.53125 -12.441406 C 5.269531 -11.535156 3.117188 -10.003906 2.128906 -7.769531 C 1 -5.53125 1.390625 -2.539062 3.320312 -0.757812 C 4.878906 0.691406 7.191406 0.621094 9.191406 0.0820312 Z M 9.191406 0.0820312 "/></g></g></g><g fill="#000000" fill-opacity="1"><g transform="translate(191.134561, 100.301987)"><g><path d="M 2.925781 0.304688 L 11.558594 1.199219 L 15.363281 -35.492188 L 6.730469 -36.386719 Z M 2.925781 0.304688 "/></g></g></g><g fill="#000000" fill-opacity="1"><g transform="translate(203.18379, 101.38817)"><g/></g></g><g fill="#000000" fill-opacity="1"><g transform="translate(214.995731, 103.487862)"><g><path d="M 22.335938 -7.84375 C 24.484375 -6.996094 26.9375 -8.066406 27.804688 -10.28125 C 28.652344 -12.429688 27.582031 -14.878906 25.433594 -15.726562 C 23.21875 -16.597656 20.769531 -15.527344 19.921875 -13.378906 C 19.054688 -11.164062 20.121094 -8.714844 22.335938 -7.84375 Z M 2.734375 1.074219 L 10.8125 4.25 L 19.339844 -17.441406 L 11.261719 -20.617188 Z M 2.734375 1.074219 "/></g></g></g><g fill="#000000" fill-opacity="1"><g transform="translate(233.011297, 109.961395)"><g><path d="M 11.253906 8.25 C 13.097656 9.523438 15.261719 10.167969 17.457031 10.253906 C 13.339844 8.761719 9.945312 4.078125 12.523438 0.078125 L 19.84375 -11.277344 C 20.941406 -12.984375 22.757812 -13.480469 24.324219 -12.804688 C 18.5625 -16.269531 11.132812 -14.558594 7.492188 -8.910156 C 3.777344 -3.144531 5.488281 4.535156 11.253906 8.25 Z M 21.691406 -1.09375 L 28.222656 3.113281 C 29.851562 0.585938 33.148438 -7.117188 24.96875 -12.386719 C 26.210938 -11.339844 26.882812 -9.15625 24.761719 -5.859375 Z M 21.691406 -1.09375 "/></g></g></g><g fill="#000000" fill-opacity="1"><g transform="translate(251.984287, 121.95334)"><g><path d="M 7.777344 8.671875 C 11.402344 12.171875 17.199219 12.417969 19.96875 9.546875 C 25.804688 3.503906 15.273438 -4.132812 19.9375 -8.96875 C 20.910156 -9.972656 22.144531 -10.242188 23.980469 -10.027344 C 20.351562 -13.527344 15.160156 -13.1875 12.875 -10.820312 C 7.480469 -5.230469 17.464844 2.265625 13.089844 6.796875 C 11.730469 8.207031 9.859375 8.933594 7.777344 8.671875 Z M 22.347656 -1.585938 C 23.757812 -0.222656 25.984375 -0.3125 27.34375 -1.722656 C 28.707031 -3.132812 28.664062 -5.410156 27.304688 -6.722656 C 25.894531 -8.082031 23.617188 -8.042969 22.257812 -6.632812 C 20.898438 -5.222656 20.9375 -2.945312 22.347656 -1.585938 Z M 3.839844 4.289062 C 5.550781 5.941406 8.222656 5.894531 9.875 4.179688 C 11.527344 2.46875 11.480469 -0.203125 9.769531 -1.855469 C 8.105469 -3.460938 5.382812 -3.460938 3.730469 -1.75 C 2.078125 -0.0351562 2.175781 2.683594 3.839844 4.289062 Z M 3.839844 4.289062 "/></g></g></g><g fill="#000000" fill-opacity="1"><g transform="translate(265.715958, 134.648574)"><g><path d="M 7.398438 11.832031 C 8.640625 13.695312 10.414062 15.097656 12.421875 15.988281 C 8.570312 12.027344 10.441406 5.367188 16.027344 1.386719 C 20.589844 -1.863281 25.910156 -2.476562 28.855469 -0.277344 C 28.539062 -1.082031 28.105469 -1.808594 27.578125 -2.546875 C 23.597656 -8.132812 15.84375 -9.484375 10.257812 -5.503906 C 4.671875 -1.523438 3.417969 6.246094 7.398438 11.832031 Z M 21.53125 7.175781 C 22.910156 9.113281 25.546875 9.558594 27.484375 8.175781 C 29.367188 6.835938 29.867188 4.160156 28.484375 2.222656 C 27.144531 0.339844 24.453125 -0.0625 22.570312 1.277344 C 20.632812 2.660156 20.191406 5.296875 21.53125 7.175781 Z M 21.53125 7.175781 "/></g></g></g><g fill="#000000" fill-opacity="1"><g transform="translate(277.527005, 150.292896)"><g><path d="M 6.160156 13.808594 L 9.667969 21.667969 L 23.796875 15.367188 C 28.460938 13.285156 30.996094 6.941406 25.699219 -0.125 C 25.699219 -0.125 26.933594 4.535156 22.84375 6.363281 Z M 15.578125 0.558594 C 16.519531 2.667969 19.046875 3.6875 21.21875 2.71875 C 23.328125 1.777344 24.253906 -0.78125 23.3125 -2.890625 C 22.34375 -5.066406 19.847656 -6.019531 17.738281 -5.078125 C 15.566406 -4.109375 14.609375 -1.613281 15.578125 0.558594 Z M 3.160156 8.628906 C 3.988281 9.792969 5.242188 11.226562 6.589844 11.851562 C 5.351562 10.105469 5.738281 7.710938 7.367188 6.371094 C 9.898438 4.320312 14.078125 4.753906 16.132812 5.753906 C 15.621094 4.601562 15.101562 3.609375 14.296875 2.664062 C 12.652344 0.871094 10.460938 -0.605469 8.023438 -0.742188 C 5.527344 -1.011719 2.863281 0.40625 1.878906 2.839844 C 1.074219 4.808594 1.949219 6.949219 3.160156 8.628906 Z M 3.160156 8.628906 "/></g></g></g><g fill="#000000" fill-opacity="1"><g transform="translate(286.679681, 171.308214)"><g><path d="M 4.675781 14.765625 C 4.675781 14.765625 3.183594 10.742188 7.515625 9.605469 L 34.460938 2.527344 C 29.320312 2.789062 24.652344 0.179688 23.203125 -3.417969 L 8.039062 0.566406 C 1.46875 2.292969 -1.3125 8.234375 4.675781 14.765625 Z M 4.675781 14.765625 "/></g></g></g><g fill="#000000" fill-opacity="1"><g transform="translate(290.255886, 181.904051)"><g><path d="M 0.464844 13.945312 C 0.605469 16.183594 1.433594 18.285156 2.726562 20.0625 C 1.351562 15.902344 2.9375 10.339844 7.675781 9.894531 L 21.128906 8.632812 C 23.148438 8.445312 24.660156 9.566406 25.097656 11.214844 C 24.257812 4.542969 18.328125 -0.242188 11.636719 0.382812 C 4.804688 1.027344 -0.175781 7.117188 0.464844 13.945312 Z M 14.261719 16.378906 L 14.988281 24.113281 C 17.984375 23.832031 26.078125 21.667969 25.167969 11.980469 C 25.109375 13.601562 23.808594 15.484375 19.90625 15.847656 Z M 14.261719 16.378906 "/></g></g></g><g clip-path="url(#8998065025)"><path fill="#ffffff" d="M 114.988281 291.683594 C 113.144531 291.683594 111.351562 291.636719 109.648438 291.539062 C 107.546875 291.421875 105.3125 291.191406 103.214844 290.328125 C 101.824219 289.753906 101.101562 288.707031 101.28125 287.535156 C 101.410156 286.726562 101.957031 286.210938 102.160156 286.015625 C 105.507812 282.851562 110.933594 280.714844 115.796875 279.042969 C 120.792969 277.324219 126.039062 276.152344 131.394531 275.550781 C 133.5625 275.308594 135.832031 275.183594 138.140625 275.183594 C 144.378906 275.183594 151.027344 276.035156 159.023438 277.859375 C 159.007812 277.832031 158.996094 277.808594 158.980469 277.785156 C 157.417969 275.1875 155.503906 272.714844 153.65625 270.320312 C 150 265.582031 146.214844 260.683594 144.652344 254.382812 C 143.65625 250.375 144.183594 246.570312 146.132812 243.671875 C 147.769531 241.234375 150.296875 239.660156 153.246094 239.226562 C 153.835938 239.140625 154.429688 239.097656 155.015625 239.097656 C 156.8125 239.097656 158.574219 239.496094 160.253906 240.28125 C 159.789062 237.367188 158.589844 228.710938 158.753906 217.597656 C 158.964844 203.1875 161.949219 195.265625 165.53125 187.109375 C 166.542969 184.753906 167.132812 181.996094 167.320312 178.699219 C 167.34375 178.316406 167.382812 177.894531 167.421875 177.445312 C 167.53125 176.179688 167.683594 174.457031 167.414062 173.210938 C 166.515625 175.601562 165.226562 177.675781 163.308594 179.898438 C 163.269531 179.941406 163.191406 180.046875 163.089844 180.1875 C 161.203125 182.6875 159.921875 184.042969 158.558594 184.042969 C 158.269531 184.042969 157.992188 183.980469 157.734375 183.863281 C 156.066406 183.085938 156.402344 181.042969 156.675781 179.398438 C 156.757812 178.886719 156.855469 178.304688 156.851562 177.988281 C 156.832031 176.792969 155.761719 173.855469 155.121094 172.101562 C 154.726562 171.027344 153.707031 169.617188 152.628906 168.121094 C 151.425781 166.453125 150.058594 164.558594 149.144531 162.5625 C 147.238281 158.40625 149.6875 153.773438 153.09375 151.339844 C 155.558594 149.582031 159.019531 146.105469 160.21875 144.1875 C 160.542969 143.667969 160.898438 142.953125 161.269531 142.195312 C 162.398438 139.917969 163.945312 136.800781 166.769531 134.789062 C 168.105469 133.839844 169.796875 133.359375 171.800781 133.359375 C 173.894531 133.359375 175.863281 133.878906 177.039062 134.1875 C 177.230469 134.238281 177.457031 134.296875 177.605469 134.332031 C 177.824219 134.242188 178.238281 134.011719 178.585938 133.820312 C 179.796875 133.148438 181.621094 132.132812 184.511719 131.261719 C 186.003906 130.808594 187.648438 130.578125 189.394531 130.578125 C 192.121094 130.578125 194.308594 131.136719 194.894531 131.300781 C 195.816406 131.417969 200.464844 132.148438 204.128906 135.289062 C 206.382812 137.222656 207.613281 138.867188 208.421875 139.957031 C 208.640625 140.246094 208.898438 140.59375 209.054688 140.769531 C 209.234375 140.785156 209.503906 140.808594 209.734375 140.824219 C 212.089844 141.007812 216.988281 141.382812 219.035156 144.921875 C 220.710938 147.828125 220.652344 151.476562 220.609375 154.140625 C 220.59375 155.101562 220.578125 156.007812 220.648438 156.632812 C 220.90625 158.839844 222.535156 163.347656 224.007812 165.90625 C 226.058594 169.46875 226.285156 174.660156 222.75 177.6875 C 221.171875 179.039062 219.257812 180.175781 217.40625 181.273438 C 213.804688 183.410156 210.402344 185.429688 209.179688 188.871094 C 209.136719 188.984375 209.085938 189.171875 209.023438 189.398438 C 208.636719 190.8125 208.078125 192.824219 206.742188 193.488281 C 209.0625 199.78125 210.746094 206.902344 210.902344 217.597656 C 211.058594 228.039062 209.96875 236.558594 209.394531 240.289062 C 210.78125 239.636719 212.5625 239.097656 214.640625 239.097656 C 215.226562 239.097656 215.824219 239.140625 216.410156 239.226562 C 221.492188 239.96875 223.640625 242.78125 224.546875 245.011719 C 227.585938 252.480469 221.644531 264.0625 218.464844 268.203125 C 217.375 269.621094 216.214844 270.996094 215.089844 272.324219 C 214.132812 273.457031 213.140625 274.628906 212.21875 275.804688 C 212.136719 275.914062 211.78125 276.496094 211.496094 276.964844 C 211.292969 277.292969 211.105469 277.597656 210.929688 277.882812 L 212.007812 277.769531 C 212.359375 277.695312 213.441406 277.480469 214.5 277.480469 C 215.433594 277.480469 216.15625 277.648438 216.707031 277.996094 C 217.4375 278.457031 217.917969 279.003906 218.234375 279.363281 C 218.285156 279.421875 218.351562 279.492188 218.398438 279.546875 C 219.613281 280.136719 221.414062 282.078125 220.765625 284.535156 C 220.195312 286.699219 217.625 287.316406 216.089844 287.683594 C 216.019531 287.699219 215.9375 287.71875 215.859375 287.734375 C 214.964844 288.734375 212.472656 289.207031 205.808594 289.511719 C 200.371094 289.753906 193.109375 289.808594 186.0625 289.828125 C 184.289062 289.832031 182.507812 289.84375 180.75 289.855469 C 178.355469 289.867188 176 289.882812 173.738281 289.882812 C 168.378906 289.882812 162.402344 289.8125 158.632812 289.289062 C 157.4375 289.261719 156.230469 289.246094 155.046875 289.246094 C 153.890625 289.246094 152.722656 289.261719 151.578125 289.289062 C 146.03125 289.425781 140.351562 289.953125 134.855469 290.460938 C 128.351562 291.0625 121.625 291.683594 114.988281 291.683594 " fill-opacity="1" fill-rule="nonzero"/></g><path fill="#ffc0cb" d="M 216.179688 240.792969 C 212.835938 240.304688 210.183594 241.5 208.601562 242.535156 C 208.011719 242.917969 207.425781 242.417969 207.550781 241.730469 C 208.265625 237.746094 209.480469 228.53125 209.320312 217.621094 C 209.105469 202.988281 205.890625 195.0625 202.675781 187.742188 C 201.988281 186.179688 201.527344 184.527344 201.214844 182.851562 C 201.003906 181.730469 200.242188 179.34375 200.96875 178.328125 C 201.472656 177.625 202.730469 177.5625 203.5 177.285156 C 203.023438 180.824219 202.84375 183.921875 203.832031 187.421875 C 203.957031 187.867188 205.285156 192.039062 205.652344 192.117188 C 206.789062 192.355469 207.414062 189.105469 207.6875 188.339844 C 209.808594 182.382812 217.285156 180.285156 221.71875 176.488281 C 224.855469 173.800781 224.128906 169.289062 222.636719 166.695312 C 221.144531 164.101562 219.371094 159.371094 219.078125 156.816406 C 218.78125 154.257812 219.707031 149.25 217.664062 145.710938 C 215.617188 142.171875 209.386719 142.558594 208.46875 142.265625 C 207.546875 141.976562 206.769531 139.632812 203.097656 136.488281 C 199.425781 133.34375 194.578125 132.855469 194.578125 132.855469 C 194.578125 132.855469 189.683594 131.347656 184.972656 132.769531 C 180.261719 134.195312 178.527344 136.023438 177.5625 135.929688 C 176.597656 135.839844 171.089844 133.65625 167.6875 136.078125 C 164.285156 138.496094 162.941406 142.8125 161.5625 145.023438 C 160.179688 147.234375 156.503906 150.847656 154.015625 152.625 C 151.523438 154.402344 148.898438 158.230469 150.582031 161.902344 C 152.269531 165.574219 155.660156 168.976562 156.605469 171.558594 C 157.550781 174.144531 158.414062 176.609375 158.433594 177.964844 C 158.453125 179.320312 157.527344 182.023438 158.402344 182.429688 C 159.292969 182.839844 161.796875 179.226562 162.105469 178.867188 C 164.589844 175.992188 165.949219 173.410156 166.773438 169.800781 C 166.707031 170.101562 167.726562 170.640625 167.914062 170.828125 C 169.757812 172.613281 169.035156 176.480469 168.902344 178.789062 C 168.726562 181.855469 168.199219 184.910156 166.980469 187.742188 C 163.765625 195.0625 160.550781 202.988281 160.335938 217.621094 C 160.191406 227.425781 161.125 235.859375 161.871094 240.363281 C 162.066406 241.539062 161.015625 242.4375 159.949219 241.890625 C 158.355469 241.078125 156.132812 240.402344 153.476562 240.792969 C 147.902344 241.605469 144.472656 247.09375 146.1875 254.003906 C 148.449219 263.121094 155.65625 269.203125 160.335938 276.96875 C 162.050781 279.8125 161.441406 279.8125 161.441406 279.8125 L 159.183594 279.519531 C 150.171875 277.429688 140.800781 276.089844 131.570312 277.121094 C 126.367188 277.703125 121.238281 278.84375 116.3125 280.535156 C 112.097656 281.988281 106.492188 284.101562 103.25 287.164062 C 103.066406 287.335938 102.886719 287.535156 102.847656 287.777344 C 102.765625 288.285156 103.324219 288.664062 103.820312 288.867188 C 105.675781 289.632812 107.722656 289.851562 109.738281 289.960938 C 123.648438 290.742188 137.636719 288.054688 151.539062 287.707031 C 153.941406 287.648438 156.355469 287.652344 158.765625 287.714844 C 164.378906 288.507812 175.324219 288.277344 186.058594 288.246094 C 200.488281 288.207031 214.539062 288.027344 214.734375 286.496094 C 214.785156 286.117188 218.753906 285.960938 219.238281 284.132812 C 219.71875 282.304688 218.03125 281.085938 217.628906 280.933594 C 217.226562 280.78125 216.824219 279.941406 215.859375 279.332031 C 214.894531 278.722656 212.261719 279.332031 212.261719 279.332031 L 207.613281 279.8125 C 208.042969 279.769531 210.613281 275.285156 210.972656 274.828125 C 212.996094 272.253906 215.214844 269.835938 217.207031 267.242188 C 222.070312 260.90625 229.710938 242.765625 216.179688 240.792969 " fill-opacity="1" fill-rule="nonzero"/><g clip-path="url(#2b9db58331)"><path fill="#ffffff" d="M 237.359375 291.683594 C 234.703125 291.683594 232.09375 291.273438 229.570312 290.878906 C 229.101562 290.804688 228.632812 290.730469 228.15625 290.660156 C 227.488281 290.558594 226.816406 290.460938 226.132812 290.375 C 225.203125 290.257812 224.144531 290.203125 222.796875 290.203125 C 222.019531 290.203125 221.238281 290.21875 220.449219 290.238281 C 219.648438 290.253906 218.816406 290.273438 217.992188 290.273438 C 215.136719 290.273438 211.824219 290.066406 208.902344 288.542969 C 198.59375 283.160156 197.535156 264.773438 201.363281 254.96875 C 201.679688 254.164062 201.96875 253.425781 202.242188 252.734375 C 203.476562 249.597656 204.363281 247.332031 205.675781 243.4375 C 206.035156 242.378906 206.347656 241.261719 206.679688 240.074219 C 207.273438 237.941406 207.886719 235.738281 208.816406 233.761719 C 209.320312 232.683594 209.300781 231.503906 209.265625 229.550781 C 209.246094 228.601562 209.226562 227.527344 209.265625 226.238281 C 209.296875 225.105469 209.421875 224.21875 209.519531 223.507812 C 209.636719 222.65625 209.714844 222.089844 209.605469 221.515625 C 209.535156 221.144531 209.25 220.574219 208.921875 219.917969 C 208.664062 219.402344 208.371094 218.8125 208.074219 218.121094 C 206.710938 214.921875 206.726562 213.113281 206.738281 211.792969 C 206.742188 211.304688 206.746094 210.917969 206.671875 210.578125 C 206.539062 209.96875 206.070312 209.304688 205.578125 208.605469 C 205.28125 208.1875 204.980469 207.757812 204.714844 207.292969 C 203.917969 205.898438 203.332031 204.808594 202.808594 203.761719 L 202.683594 203.515625 C 201.019531 200.253906 199.730469 197.003906 201.519531 195.335938 C 202.171875 194.726562 202.992188 194.402344 203.882812 194.402344 C 205.566406 194.402344 207.195312 195.523438 208.769531 196.613281 C 209.734375 197.277344 211.050781 198.1875 211.65625 198.1875 C 211.988281 198.113281 212.363281 197.839844 212.765625 197.550781 L 212.839844 197.5 C 214.542969 196.269531 216.074219 195.476562 217.660156 195 C 217.839844 194.945312 218.023438 194.894531 218.207031 194.84375 C 219.195312 194.578125 219.507812 194.445312 219.660156 194.09375 C 219.792969 193.796875 219.847656 193.367188 219.902344 192.917969 C 219.972656 192.363281 220.023438 191.808594 220.082031 191.222656 C 220.210938 189.800781 220.351562 188.328125 220.765625 186.863281 C 221.246094 185.175781 222.417969 182.351562 224.863281 182.351562 C 225.070312 182.351562 225.277344 182.371094 225.484375 182.417969 C 226.863281 182.714844 227.742188 183.914062 228.386719 184.789062 C 228.472656 184.902344 228.554688 185.015625 228.628906 185.113281 C 229.417969 186.136719 230.113281 187.34375 230.761719 188.796875 C 231.425781 190.292969 231.871094 191.820312 232.304688 193.304688 C 232.59375 194.292969 232.867188 195.226562 233.199219 196.152344 C 233.675781 197.484375 234.300781 198.785156 234.902344 200.046875 C 236.417969 203.21875 237.988281 206.5 237.597656 210.675781 C 237.5 211.730469 237.207031 212.71875 236.921875 213.671875 C 236.335938 215.652344 236.046875 216.832031 236.871094 217.976562 C 239.648438 221.816406 240.792969 225.199219 240.824219 229.640625 C 240.84375 232.347656 241.347656 234.101562 242.628906 235.890625 C 243.871094 237.632812 244.828125 239.5625 245.476562 241.628906 C 246.09375 243.613281 246.910156 245.28125 247.773438 247.046875 C 248.382812 248.296875 249.015625 249.589844 249.597656 251.039062 C 251.300781 255.273438 252.03125 260.132812 251.710938 265.09375 C 251.691406 265.394531 251.675781 265.851562 251.660156 266.40625 C 251.65625 266.542969 251.652344 266.675781 251.648438 266.8125 C 252.214844 264.53125 252.464844 262.125 252.476562 260.046875 C 252.484375 257.972656 252.3125 255.875 252.148438 253.847656 C 251.8125 249.78125 251.464844 245.574219 252.535156 241.179688 C 253.242188 238.28125 254.492188 235.679688 256.15625 233.660156 C 257.511719 232.015625 260.160156 229.230469 262.664062 229.074219 C 262.746094 229.070312 262.828125 229.066406 262.910156 229.066406 C 264.851562 229.066406 266.722656 230.46875 267.265625 232.328125 C 267.597656 233.457031 267.402344 234.769531 266.734375 235.9375 C 266.03125 237.15625 265.238281 238.144531 264.46875 239.097656 C 263.246094 240.617188 262.191406 241.925781 261.703125 243.914062 C 260.679688 248.046875 261.242188 252.042969 261.835938 256.277344 C 262.335938 259.839844 262.851562 263.527344 262.375 267.351562 C 261.546875 273.996094 259.917969 279.433594 254.667969 284.367188 C 250.835938 287.96875 246.742188 290.199219 242.15625 291.191406 C 240.617188 291.523438 239.050781 291.683594 237.359375 291.683594 " fill-opacity="1" fill-rule="nonzero"/></g><path fill="#9dcd5a" d="M 228.394531 289.097656 C 232.921875 289.785156 237.164062 290.652344 241.820312 289.644531 C 246.203125 288.699219 250.074219 286.515625 253.582031 283.214844 C 258.644531 278.460938 260.054688 273.140625 260.804688 267.15625 C 261.804688 259.148438 258.171875 251.613281 260.164062 243.535156 C 261.070312 239.855469 263.621094 238.171875 265.359375 235.148438 C 265.765625 234.441406 265.980469 233.5625 265.746094 232.769531 C 265.371094 231.476562 264.003906 230.574219 262.761719 230.652344 C 260.933594 230.765625 258.53125 233.265625 257.378906 234.664062 C 255.769531 236.621094 254.683594 239.046875 254.074219 241.550781 C 252.542969 247.851562 254.089844 253.773438 254.058594 260.054688 C 254.027344 265.105469 252.703125 272.21875 248.558594 275.335938 C 250.113281 274.167969 250.011719 266.804688 250.128906 264.992188 C 250.421875 260.484375 249.828125 255.851562 248.128906 251.628906 C 246.75 248.199219 245.070312 245.644531 243.964844 242.101562 C 243.367188 240.199219 242.480469 238.40625 241.339844 236.808594 C 239.753906 234.589844 239.261719 232.421875 239.238281 229.652344 C 239.210938 225.332031 238.035156 222.289062 235.589844 218.902344 C 233.65625 216.226562 235.753906 213.386719 236.023438 210.527344 C 236.519531 205.191406 233.398438 201.382812 231.710938 196.6875 C 230.84375 194.277344 230.351562 191.777344 229.3125 189.4375 C 228.785156 188.25 228.160156 187.097656 227.375 186.078125 C 226.816406 185.347656 226.082031 184.164062 225.152344 183.960938 C 223.59375 183.625 222.636719 186.078125 222.289062 187.296875 C 221.75 189.183594 221.71875 191.171875 221.476562 193.113281 C 221.40625 193.667969 221.332031 194.230469 221.109375 194.730469 C 220.542969 196.011719 219.25 196.171875 218.117188 196.511719 C 216.527344 196.992188 215.132812 197.796875 213.769531 198.777344 C 213.234375 199.164062 212.691406 199.570312 212.0625 199.722656 C 209.417969 200.355469 205.039062 194.214844 202.601562 196.492188 C 201.347656 197.65625 203.691406 201.992188 204.222656 203.054688 C 204.8125 204.226562 205.445312 205.375 206.089844 206.511719 C 206.773438 207.714844 207.917969 208.867188 208.21875 210.242188 C 208.574219 211.898438 207.738281 213.296875 209.53125 217.5 C 210.246094 219.171875 210.976562 220.261719 211.160156 221.222656 C 211.4375 222.671875 210.917969 223.832031 210.847656 226.285156 C 210.726562 230.359375 211.203125 232.398438 210.25 234.433594 C 208.882812 237.34375 208.203125 240.902344 207.175781 243.945312 C 205.5625 248.730469 204.589844 251.054688 202.835938 255.542969 C 199.28125 264.652344 200.242188 282.238281 209.636719 287.140625 C 214.59375 289.730469 220.980469 288.132812 226.332031 288.808594 C 227.027344 288.894531 227.714844 288.996094 228.394531 289.097656 " fill-opacity="1" fill-rule="nonzero"/></svg>